<svg xmlns="http://www.w3.org/2000/svg" viewBox="0 0 32 32">
  <defs>
    <linearGradient id="g" x1="0" y1="0" x2="1" y2="1">
      <stop offset="0%" stop-color="#22d3ee"/>
      <stop offset="100%" stop-color="#a78bfa"/>
    </linearGradient>
    <radialGradient id="orb" cx="0.4" cy="0.35" r="0.6">
      <stop offset="0%" stop-color="#5eead4"/>
      <stop offset="60%" stop-color="#22d3ee"/>
      <stop offset="100%" stop-color="#7c3aed"/>
    </radialGradient>
  </defs>
  <rect width="32" height="32" rx="7" fill="#05060a"/>
  <!-- Dendrite tendrils -->
  <path d="M16 7 Q12 4 8 5" stroke="#22d3ee" stroke-width="0.8" fill="none" opacity="0.5"/>
  <path d="M16 7 Q20 3 24 5" stroke="#22d3ee" stroke-width="0.8" fill="none" opacity="0.5"/>
  <path d="M10 14 Q5 12 4 8" stroke="#22d3ee" stroke-width="0.7" fill="none" opacity="0.4"/>
  <path d="M22 14 Q27 12 28 8" stroke="#a78bfa" stroke-width="0.7" fill="none" opacity="0.4"/>
  <path d="M12 22 Q7 25 5 28" stroke="#a78bfa" stroke-width="0.7" fill="none" opacity="0.4"/>
  <path d="M20 22 Q25 25 27 28" stroke="#a78bfa" stroke-width="0.7" fill="none" opacity="0.4"/>
  <path d="M16 24 Q16 28 16 30" stroke="#a78bfa" stroke-width="0.6" fill="none" opacity="0.3"/>
  <!-- Dendrite tips -->
  <circle cx="8" cy="5" r="1" fill="#22d3ee" opacity="0.6"/>
  <circle cx="24" cy="5" r="1" fill="#22d3ee" opacity="0.6"/>
  <circle cx="4" cy="8" r="0.8" fill="#22d3ee" opacity="0.4"/>
  <circle cx="28" cy="8" r="0.8" fill="#a78bfa" opacity="0.4"/>
  <circle cx="5" cy="28" r="0.8" fill="#a78bfa" opacity="0.4"/>
  <circle cx="27" cy="28" r="0.8" fill="#a78bfa" opacity="0.4"/>
  <!-- Organoid body -->
  <circle cx="16" cy="15" r="8" fill="url(#orb)" opacity="0.9"/>
  <!-- Inner structure (cell clusters) -->
  <circle cx="13" cy="13" r="2" fill="white" opacity="0.12"/>
  <circle cx="18" cy="12" r="1.5" fill="white" opacity="0.1"/>
  <circle cx="15" cy="17" r="1.8" fill="white" opacity="0.08"/>
  <!-- Glow -->
  <circle cx="16" cy="15" r="8" fill="none" stroke="url(#g)" stroke-width="0.5" opacity="0.6"/>
</svg>
